<svg width="153" height="99" viewBox="0 0 153 99" fill="none" xmlns="http://www.w3.org/2000/svg">
<g id="dots" opacity="0.3">
<g id="Group 365">
<circle id="Ellipse 29" cx="2.25" cy="2.25" r="2.25" fill="#7562E0"/>
<circle id="Ellipse 30" cx="15.75" cy="2.25" r="2.25" fill="#7562E0"/>
<circle id="Ellipse 31" cx="29.25" cy="2.25" r="2.25" fill="#7562E0"/>
<circle id="Ellipse 32" cx="42.75" cy="2.25" r="2.25" fill="#7562E0"/>
<circle id="Ellipse 33" cx="56.25" cy="2.25" r="2.25" fill="#7562E0"/>
<circle id="Ellipse 34" cx="69.75" cy="2.25" r="2.25" fill="#7562E0"/>
<circle id="Ellipse 35" cx="83.25" cy="2.25" r="2.25" fill="#7562E0"/>
<circle id="Ellipse 36" cx="96.75" cy="2.25" r="2.25" fill="#7562E0"/>
<circle id="Ellipse 37" cx="110.25" cy="2.25" r="2.25" fill="#7562E0"/>
<circle id="Ellipse 38" cx="123.75" cy="2.25" r="2.25" fill="#7562E0"/>
<circle id="Ellipse 39" cx="137.25" cy="2.25" r="2.25" fill="#7562E0"/>
<circle id="Ellipse 40" cx="150.75" cy="2.25" r="2.25" fill="#7562E0"/>
</g>
<g id="Group 366">
<circle id="Ellipse 29_2" cx="2.25" cy="15.75" r="2.25" fill="#7562E0"/>
<circle id="Ellipse 30_2" cx="15.75" cy="15.75" r="2.25" fill="#7562E0"/>
<circle id="Ellipse 31_2" cx="29.25" cy="15.75" r="2.25" fill="#7562E0"/>
<circle id="Ellipse 32_2" cx="42.75" cy="15.75" r="2.25" fill="#7562E0"/>
<circle id="Ellipse 33_2" cx="56.25" cy="15.75" r="2.25" fill="#7562E0"/>
<circle id="Ellipse 34_2" cx="69.75" cy="15.75" r="2.25" fill="#7562E0"/>
<circle id="Ellipse 35_2" cx="83.25" cy="15.75" r="2.25" fill="#7562E0"/>
<circle id="Ellipse 36_2" cx="96.75" cy="15.75" r="2.25" fill="#7562E0"/>
<circle id="Ellipse 37_2" cx="110.25" cy="15.75" r="2.25" fill="#7562E0"/>
<circle id="Ellipse 38_2" cx="123.75" cy="15.75" r="2.25" fill="#7562E0"/>
<circle id="Ellipse 39_2" cx="137.25" cy="15.75" r="2.25" fill="#7562E0"/>
<circle id="Ellipse 40_2" cx="150.75" cy="15.75" r="2.25" fill="#7562E0"/>
</g>
<g id="Group 367">
<circle id="Ellipse 29_3" cx="2.25" cy="29.25" r="2.25" fill="#7562E0"/>
<circle id="Ellipse 30_3" cx="15.75" cy="29.25" r="2.25" fill="#7562E0"/>
<circle id="Ellipse 31_3" cx="29.25" cy="29.25" r="2.25" fill="#7562E0"/>
<circle id="Ellipse 32_3" cx="42.75" cy="29.25" r="2.25" fill="#7562E0"/>
<circle id="Ellipse 33_3" cx="56.25" cy="29.25" r="2.25" fill="#7562E0"/>
<circle id="Ellipse 34_3" cx="69.75" cy="29.25" r="2.25" fill="#7562E0"/>
<circle id="Ellipse 35_3" cx="83.25" cy="29.25" r="2.25" fill="#7562E0"/>
<circle id="Ellipse 36_3" cx="96.75" cy="29.25" r="2.25" fill="#7562E0"/>
<circle id="Ellipse 37_3" cx="110.25" cy="29.25" r="2.25" fill="#7562E0"/>
<circle id="Ellipse 38_3" cx="123.75" cy="29.25" r="2.25" fill="#7562E0"/>
<circle id="Ellipse 39_3" cx="137.25" cy="29.25" r="2.25" fill="#7562E0"/>
<circle id="Ellipse 40_3" cx="150.75" cy="29.25" r="2.25" fill="#7562E0"/>
</g>
<g id="Group 368">
<circle id="Ellipse 29_4" cx="2.25" cy="42.75" r="2.25" fill="#7562E0"/>
<circle id="Ellipse 30_4" cx="15.75" cy="42.75" r="2.25" fill="#7562E0"/>
<circle id="Ellipse 31_4" cx="29.25" cy="42.75" r="2.25" fill="#7562E0"/>
<circle id="Ellipse 32_4" cx="42.75" cy="42.75" r="2.25" fill="#7562E0"/>
<circle id="Ellipse 33_4" cx="56.25" cy="42.75" r="2.25" fill="#7562E0"/>
<circle id="Ellipse 34_4" cx="69.75" cy="42.75" r="2.25" fill="#7562E0"/>
<circle id="Ellipse 35_4" cx="83.25" cy="42.75" r="2.25" fill="#7562E0"/>
<circle id="Ellipse 36_4" cx="96.75" cy="42.75" r="2.25" fill="#7562E0"/>
<circle id="Ellipse 37_4" cx="110.25" cy="42.75" r="2.25" fill="#7562E0"/>
<circle id="Ellipse 38_4" cx="123.75" cy="42.75" r="2.25" fill="#7562E0"/>
<circle id="Ellipse 39_4" cx="137.25" cy="42.75" r="2.25" fill="#7562E0"/>
<circle id="Ellipse 40_4" cx="150.75" cy="42.75" r="2.25" fill="#7562E0"/>
</g>
<g id="Group 369">
<circle id="Ellipse 29_5" cx="2.25" cy="56.25" r="2.25" fill="#7562E0"/>
<circle id="Ellipse 30_5" cx="15.75" cy="56.25" r="2.25" fill="#7562E0"/>
<circle id="Ellipse 31_5" cx="29.25" cy="56.25" r="2.25" fill="#7562E0"/>
<circle id="Ellipse 32_5" cx="42.75" cy="56.25" r="2.25" fill="#7562E0"/>
<circle id="Ellipse 33_5" cx="56.25" cy="56.25" r="2.25" fill="#7562E0"/>
<circle id="Ellipse 34_5" cx="69.75" cy="56.25" r="2.25" fill="#7562E0"/>
<circle id="Ellipse 35_5" cx="83.25" cy="56.25" r="2.25" fill="#7562E0"/>
<circle id="Ellipse 36_5" cx="96.75" cy="56.25" r="2.25" fill="#7562E0"/>
<circle id="Ellipse 37_5" cx="110.25" cy="56.25" r="2.25" fill="#7562E0"/>
<circle id="Ellipse 38_5" cx="123.75" cy="56.25" r="2.25" fill="#7562E0"/>
<circle id="Ellipse 39_5" cx="137.25" cy="56.25" r="2.25" fill="#7562E0"/>
<circle id="Ellipse 40_5" cx="150.75" cy="56.25" r="2.25" fill="#7562E0"/>
</g>
<g id="Group 370">
<circle id="Ellipse 29_6" cx="2.25" cy="69.75" r="2.25" fill="#7562E0"/>
<circle id="Ellipse 30_6" cx="15.75" cy="69.75" r="2.25" fill="#7562E0"/>
<circle id="Ellipse 31_6" cx="29.25" cy="69.75" r="2.25" fill="#7562E0"/>
<circle id="Ellipse 32_6" cx="42.75" cy="69.75" r="2.25" fill="#7562E0"/>
<circle id="Ellipse 33_6" cx="56.25" cy="69.75" r="2.25" fill="#7562E0"/>
<circle id="Ellipse 34_6" cx="69.75" cy="69.75" r="2.25" fill="#7562E0"/>
<circle id="Ellipse 35_6" cx="83.25" cy="69.75" r="2.25" fill="#7562E0"/>
<circle id="Ellipse 36_6" cx="96.75" cy="69.75" r="2.25" fill="#7562E0"/>
<circle id="Ellipse 37_6" cx="110.25" cy="69.75" r="2.25" fill="#7562E0"/>
<circle id="Ellipse 38_6" cx="123.75" cy="69.75" r="2.25" fill="#7562E0"/>
<circle id="Ellipse 39_6" cx="137.25" cy="69.75" r="2.25" fill="#7562E0"/>
<circle id="Ellipse 40_6" cx="150.75" cy="69.75" r="2.25" fill="#7562E0"/>
</g>
<g id="Group 371">
<circle id="Ellipse 29_7" cx="2.25" cy="83.25" r="2.25" fill="#7562E0"/>
<circle id="Ellipse 30_7" cx="15.75" cy="83.25" r="2.25" fill="#7562E0"/>
<circle id="Ellipse 31_7" cx="29.25" cy="83.25" r="2.25" fill="#7562E0"/>
<circle id="Ellipse 32_7" cx="42.75" cy="83.25" r="2.25" fill="#7562E0"/>
<circle id="Ellipse 33_7" cx="56.25" cy="83.25" r="2.25" fill="#7562E0"/>
<circle id="Ellipse 34_7" cx="69.75" cy="83.25" r="2.25" fill="#7562E0"/>
<circle id="Ellipse 35_7" cx="83.25" cy="83.25" r="2.25" fill="#7562E0"/>
<circle id="Ellipse 36_7" cx="96.75" cy="83.25" r="2.25" fill="#7562E0"/>
<circle id="Ellipse 37_7" cx="110.25" cy="83.25" r="2.25" fill="#7562E0"/>
<circle id="Ellipse 38_7" cx="123.75" cy="83.25" r="2.25" fill="#7562E0"/>
<circle id="Ellipse 39_7" cx="137.25" cy="83.25" r="2.25" fill="#7562E0"/>
<circle id="Ellipse 40_7" cx="150.75" cy="83.25" r="2.25" fill="#7562E0"/>
</g>
<g id="Group 372">
<circle id="Ellipse 29_8" cx="2.25" cy="96.75" r="2.25" fill="#7562E0"/>
<circle id="Ellipse 30_8" cx="15.75" cy="96.75" r="2.25" fill="#7562E0"/>
<circle id="Ellipse 31_8" cx="29.25" cy="96.75" r="2.25" fill="#7562E0"/>
<circle id="Ellipse 32_8" cx="42.75" cy="96.75" r="2.25" fill="#7562E0"/>
<circle id="Ellipse 33_8" cx="56.25" cy="96.75" r="2.25" fill="#7562E0"/>
<circle id="Ellipse 34_8" cx="69.75" cy="96.75" r="2.25" fill="#7562E0"/>
<circle id="Ellipse 35_8" cx="83.25" cy="96.75" r="2.25" fill="#7562E0"/>
<circle id="Ellipse 36_8" cx="96.75" cy="96.75" r="2.25" fill="#7562E0"/>
<circle id="Ellipse 37_8" cx="110.25" cy="96.75" r="2.25" fill="#7562E0"/>
<circle id="Ellipse 38_8" cx="123.75" cy="96.75" r="2.25" fill="#7562E0"/>
<circle id="Ellipse 39_8" cx="137.25" cy="96.75" r="2.25" fill="#7562E0"/>
<circle id="Ellipse 40_8" cx="150.75" cy="96.75" r="2.25" fill="#7562E0"/>
</g>
</g>
</svg>
