<svg width="34" height="29" viewBox="0 0 34 29" fill="none" xmlns="http://www.w3.org/2000/svg">
<g id="Frame 1000003962">
<path id="Vector" d="M33.7296 0.295874C30.9653 -0.140461 28.2867 0.183709 25.6121 0.290037C22.6242 0.408035 19.6377 0.566225 16.6544 0.760079C12.5056 1.02914 8.35683 1.31506 4.214 1.66322C3.0228 1.76307 2.70225 2.54626 3.49309 3.39948C5.11632 5.14936 6.9539 6.65805 9.24331 7.7343C9.28486 10.2732 10.3085 12.7116 10.8191 15.2564C10.9675 15.9961 10.9813 16.7625 11.1211 17.5048C11.3078 18.4948 11.7702 18.7652 12.7602 18.5033C15.1729 17.8647 17.4868 16.9369 19.8375 16.1213C20.4905 15.895 21.0518 15.9151 21.6929 16.1913C23.8082 17.1042 25.9439 17.9742 28.0849 18.8287C29.2761 19.304 29.5142 19.1976 29.7273 17.9943C30.1197 15.777 30.7865 13.6381 31.5075 11.5115C32.5404 8.46628 32.8866 5.30042 33.1445 2.12938C33.1993 1.46029 33.7672 1.02007 33.7296 0.295874ZM31.6334 1.31377C31.6328 1.62432 31.4098 1.71833 31.2581 1.85124C28.5314 4.22028 25.8661 6.65287 23.239 9.13018C21.526 10.7459 19.6601 12.2494 17.4538 13.1441C16.2408 13.6362 15.2805 14.3526 14.3386 15.1682C13.6196 15.7913 12.9027 16.4169 12.0934 17.1204C11.9074 13.7931 10.3356 10.9507 9.86662 7.8536C13.5979 6.80523 17.182 5.6246 20.7563 4.40766C24.32 3.19461 27.9094 2.04769 31.6334 1.31377ZM31.582 2.98714C31.3122 8.18361 29.3724 13.0079 28.7042 18.1823C25.2098 16.5829 21.809 14.9893 17.9748 13.8949C23.3181 10.9883 27.1602 6.64833 31.582 2.98714ZM4.10716 2.39845C12.5597 1.97508 20.7702 1.56403 29.2062 1.14131C28.7801 1.30534 28.569 1.41426 28.3441 1.46872C22.8412 2.80236 17.4624 4.54899 12.0775 6.26386C10.5091 6.76308 9.17208 7.08726 8.04618 5.56754C7.90701 5.37953 7.659 5.27061 7.4631 5.12214C6.38997 4.31171 5.27528 3.54925 4.10716 2.39845ZM13.7245 17.1975C14.735 16.308 15.6056 15.554 16.4604 14.7831C16.6966 14.5698 16.9518 14.5289 17.2262 14.6158C17.9828 14.8544 18.7334 15.1124 19.6588 15.4204C17.6239 16.0292 15.7672 16.5855 13.7245 17.1975Z" fill="#5978FF"/>
<path id="Vector_2" d="M12.6863 21.0293C12.2312 21.1674 11.97 21.4773 11.6969 21.7587C9.98528 23.5202 8.09162 25.0711 6.06671 26.4702C5.68877 26.7308 5.28576 26.9564 4.90255 27.2099C4.66708 27.3656 4.22978 27.4349 4.4039 27.8382C4.58727 28.2622 4.94542 28.0132 5.19408 27.8875C8.10481 26.4183 10.7405 24.6075 12.6882 21.961C12.8465 21.7457 13.08 21.537 12.9283 21.2309C12.8822 21.1395 12.7568 21.0857 12.6863 21.0293Z" fill="#5978FF"/>
<path id="Vector_3" d="M0.729747 22.0611C0.729087 22.3152 0.871564 22.4656 1.1288 22.404C1.33129 22.3554 1.52323 22.2381 1.70263 22.1246C3.72029 20.8474 5.73728 19.5675 7.74901 18.2812C8.24237 17.9661 8.69617 17.5933 9.00617 17.0954C9.16909 16.8341 9.25021 16.5126 8.96 16.2681C8.69814 16.0477 8.42443 16.1676 8.2094 16.357C5.97672 18.3208 3.45711 19.9086 1.05096 21.6442C0.901237 21.7531 0.728427 21.8361 0.729747 22.0611Z" fill="#5978FF"/>
<path id="Vector_4" d="M10.1179 18.584C9.74394 18.6028 9.51045 18.8602 9.26641 19.0858C7.5383 20.684 5.91705 22.3949 4.07418 23.8719C3.69228 24.1779 3.29786 24.469 2.90079 24.7562C2.71743 24.8891 2.52813 25.0253 2.65608 25.269C2.82889 25.5965 3.07954 25.3922 3.28862 25.3041C3.45682 25.2334 3.61115 25.1264 3.76154 25.0214C6.08063 23.3999 8.19194 21.5456 10.1423 19.5124C10.3277 19.3192 10.5638 19.1279 10.4794 18.8128C10.4345 18.6495 10.2808 18.597 10.1179 18.584Z" fill="#5978FF"/>
</g>
</svg>
