<svg width="41" height="45" viewBox="0 0 41 45" fill="none" xmlns="http://www.w3.org/2000/svg">
<g id="Frame 1000003969">
<path id="Vector" d="M37.3309 22.5769C35.1256 18.9412 32.8818 15.3963 30.181 12.1036C28.9209 10.5739 27.519 9.16638 26.0231 7.86934C24.7603 6.77577 22.9012 4.93668 21.1385 5.88597C19.9231 6.53935 20.7876 8.07107 21.4253 8.75759C22.9882 10.4454 24.8924 11.8378 26.4893 13.5125C29.6162 16.7854 32.2024 20.5647 35.0212 24.1012C35.9926 25.3231 38.1604 23.9425 37.3309 22.5769Z" fill="#F8971F"/>
<path id="Vector_2" d="M11.8416 19.3319C13.8963 21.0349 16.4066 22.0261 18.7666 23.2245C21.4556 24.5843 24.1277 26.0565 27.0802 26.7511C28.8269 27.1627 29.8012 24.735 28.0434 24.0679C25.1091 22.9546 22.3653 21.5537 19.5993 20.076C17.2251 18.8087 14.9051 17.6231 12.1457 17.8972C11.3928 17.9711 11.3653 18.935 11.8416 19.3319Z" fill="#F8971F"/>
<path id="Vector_3" d="M1.612 37.807C0.940065 38.0559 1.1604 39.2017 1.87017 39.2006C9.16097 39.1846 16.8929 38.7211 23.8818 36.5227C25.6424 35.9689 25.2208 33.1696 23.3461 33.6313C16.1799 35.396 8.58463 35.23 1.612 37.807Z" fill="#F8971F"/>
</g>
</svg>
