<svg width="936" height="1167" viewBox="0 0 936 1167" fill="none" xmlns="http://www.w3.org/2000/svg">
<g opacity="0.4">
<g opacity="0.8" filter="url(#filter0_f_1_742)">
<ellipse cx="177" cy="183.5" rx="177" ry="183.5" transform="matrix(1 0 0 -1 400 767)" fill="#5978FF"/>
</g>
</g>
<path d="M367.754 504.087C368.847 504.657 369.945 504.664 371.146 504.689C372.753 504.191 373.909 503.579 374.755 502.063C375.497 500.731 375.678 499.038 375.197 497.586C374.732 496.179 373.741 495.051 372.38 494.453C371.442 494.042 370.464 493.997 369.457 494.046C367.758 494.472 366.38 495.144 365.454 496.702C364.752 497.884 364.598 499.307 364.941 500.631C365.326 502.114 366.404 503.382 367.754 504.087Z" fill="#F9AB50"/>
<path d="M594.118 465.584C594.157 465.766 594.205 465.946 594.262 466.124C594.32 466.301 594.387 466.475 594.462 466.645C594.538 466.815 594.623 466.981 594.716 467.143C595.455 468.405 596.687 469.22 598.099 469.546C599.131 469.784 600.038 469.693 601.059 469.47C602.839 468.487 604.02 467.443 604.613 465.441C604.737 465.023 604.831 464.597 604.924 464.171C604.325 462.298 603.609 460.515 601.723 459.585C600.381 458.925 599.148 458.945 597.693 459.067C596.04 459.976 594.841 460.962 594.256 462.826C594.199 463.003 594.152 463.183 594.114 463.366C594.075 463.548 594.047 463.732 594.028 463.918C594.009 464.103 594 464.289 594 464.475C594 464.661 594.01 464.847 594.03 465.033C594.05 465.218 594.079 465.402 594.118 465.584Z" fill="#F9AB50"/>
<path d="M725.342 585.628C726 587.037 727.266 588.028 728.726 588.509C729.789 588.859 730.779 588.848 731.883 588.765C733.542 588.122 734.808 587.386 735.594 585.704C735.67 585.538 735.738 585.368 735.797 585.194C735.856 585.021 735.906 584.845 735.946 584.667C735.987 584.488 736.019 584.308 736.041 584.126C736.063 583.944 736.076 583.762 736.08 583.579C736.083 583.396 736.077 583.213 736.062 583.03C736.046 582.848 736.021 582.667 735.987 582.487C735.954 582.307 735.911 582.129 735.858 581.953C735.806 581.778 735.745 581.606 735.675 581.436C735.045 579.877 733.753 578.692 732.18 578.121C731.184 577.76 730.246 577.782 729.205 577.852C727.442 578.615 726.124 579.499 725.342 581.332C724.761 582.694 724.709 584.275 725.342 585.628Z" fill="#F9AB50"/>
<path d="M434.349 776.655C433.153 776.355 431.933 776.737 430.702 776.355C430.406 776.021 430.101 775.739 429.761 775.45L429.514 775.405L429.143 775.72C428.086 775.534 427.163 774.738 426.292 774.141C422.408 771.477 419.523 768.708 416.438 765.173C414.042 764.869 410.401 765.676 408.414 764.122C407.578 764.203 406.706 764.349 406.119 765.023C404.761 766.579 405.681 770.38 405.842 772.247C406.122 771.65 406.249 771.43 406.905 771.232C407.02 771.197 407.138 771.167 407.257 771.144C407.377 771.122 407.497 771.105 407.618 771.095C407.739 771.085 407.86 771.081 407.981 771.084C408.103 771.086 408.223 771.095 408.344 771.111C408.464 771.127 408.584 771.149 408.702 771.177C408.82 771.205 408.936 771.24 409.05 771.28C409.165 771.321 409.277 771.368 409.386 771.421C409.495 771.473 409.601 771.532 409.705 771.596C410.145 771.872 410.553 772.256 410.701 772.766C410.799 773.103 410.629 773.222 410.471 773.503C409.055 774.141 407.494 773.857 405.983 773.767C405.95 774.406 406.044 774.625 405.593 775.101C405.233 775.211 356.354 775.226 353.4 774.945C350.117 775.006 346.834 775.05 343.55 775.076C341.935 775.077 340.171 774.904 338.578 775.072C338.066 775.126 337.614 775.253 337.215 775.589C336.925 775.833 337.021 775.786 337 776.214C337.761 776.994 339.258 776.832 340.271 776.846C352.861 777.01 365.47 776.817 378.062 776.791L429.617 776.878C430.595 776.309 433.11 776.696 434.349 776.655Z" fill="url(#paint0_linear_1_742)"/>
<path d="M410.473 773.505C410.631 773.223 410.8 773.104 410.703 772.767C410.555 772.257 410.147 771.873 409.706 771.597C409.603 771.533 409.497 771.474 409.388 771.422C409.278 771.369 409.166 771.323 409.052 771.282C408.938 771.241 408.822 771.206 408.704 771.178C408.585 771.15 408.466 771.128 408.346 771.112C408.225 771.097 408.104 771.087 407.983 771.085C407.862 771.082 407.741 771.086 407.62 771.096C407.499 771.106 407.379 771.123 407.259 771.146C407.14 771.169 407.022 771.198 406.906 771.234C406.251 771.432 406.123 771.651 405.844 772.248L405.985 773.768C407.496 773.858 409.057 774.142 410.473 773.505Z" fill="#04104C"/>
<path d="M387.26 580.054C387.263 574.031 386.879 568.007 386.894 561.978C386.4 561.938 385.904 561.892 385.414 561.811C383.81 561.544 382.426 560.591 381.514 559.244C380.647 557.965 380.204 556.288 380.521 554.756C380.775 553.531 381.541 552.532 382.609 551.897C386.085 549.83 386.108 552.903 388.067 553.361C388.872 552.376 389.577 551.038 390.529 550.22C391.391 549.48 392.486 548.882 393.432 548.248C395.576 546.814 397.092 545.419 398.772 543.45C401.522 543.881 405.31 544.652 407.708 546.119C410.277 547.689 409.231 550.345 409.831 552.835C409.846 552.896 409.863 552.958 409.879 553.019C411.922 550.525 412.871 547.437 412.608 544.217C412.592 544.013 412.57 543.809 412.544 543.606C412.517 543.403 412.486 543.201 412.449 542.999C412.412 542.798 412.371 542.598 412.324 542.398C412.277 542.199 412.225 542.001 412.169 541.804C412.112 541.608 412.05 541.412 411.984 541.218C411.917 541.025 411.846 540.833 411.769 540.643C411.693 540.453 411.612 540.265 411.526 540.079C411.44 539.893 411.35 539.71 411.255 539.528C411.16 539.347 411.06 539.168 410.956 538.991C410.852 538.815 410.744 538.642 410.631 538.47C410.518 538.299 410.401 538.132 410.28 537.967C410.158 537.802 410.033 537.64 409.904 537.481C409.774 537.323 409.641 537.167 409.504 537.015C409.366 536.863 409.225 536.715 409.081 536.57C408.936 536.425 408.788 536.284 408.636 536.147C408.484 536.01 408.328 535.876 408.17 535.747C405.687 533.687 402.959 532.817 399.827 532.287C400.743 529.522 400.932 526.625 399.516 523.961C398.461 521.976 396.536 520.524 394.4 519.876C394.26 519.833 394.119 519.793 393.976 519.758C393.834 519.722 393.691 519.69 393.547 519.662C393.403 519.633 393.259 519.609 393.113 519.589C392.968 519.568 392.823 519.551 392.676 519.538C392.53 519.526 392.384 519.516 392.237 519.511C392.091 519.506 391.944 519.505 391.797 519.507C391.651 519.51 391.504 519.516 391.358 519.526C391.211 519.537 391.066 519.55 390.92 519.568C390.775 519.586 390.629 519.608 390.485 519.633C390.34 519.659 390.197 519.688 390.054 519.721C389.911 519.754 389.769 519.791 389.628 519.832C389.487 519.873 389.347 519.917 389.208 519.965C389.07 520.013 388.933 520.064 388.797 520.119C388.661 520.174 388.526 520.233 388.394 520.295C388.261 520.357 388.13 520.423 388 520.492C387.871 520.561 387.743 520.634 387.618 520.71C385.744 521.818 384.323 523.619 383.824 525.751C383.333 527.848 383.832 530.176 385.033 531.949C385.115 532.069 385.199 532.188 385.283 532.307C381.342 534.01 378.246 536.135 376.647 540.312C374.833 545.053 375.43 551.118 376.12 556.026C371.947 557.405 368.639 559.735 366.652 563.766C365.132 566.851 365.075 570.535 366.229 573.755C367.232 576.556 369.268 578.716 371.956 579.967C373.01 580.458 374.052 580.68 375.187 580.871C377.642 580.481 380.116 580.344 382.599 580.306C384.152 580.309 385.711 580.161 387.26 580.054Z" fill="#04104C"/>
<path d="M407.711 546.119C405.313 544.652 401.525 543.881 398.775 543.45C397.095 545.419 395.579 546.813 393.435 548.248C392.489 548.882 391.394 549.48 390.532 550.22C389.579 551.038 388.875 552.376 388.07 553.361C386.111 552.904 386.088 549.83 382.612 551.897C381.544 552.532 380.778 553.531 380.524 554.756C380.207 556.287 380.65 557.965 381.517 559.245C382.429 560.591 383.813 561.544 385.417 561.811C385.907 561.892 386.403 561.938 386.897 561.978C386.882 568.007 387.266 574.031 387.263 580.054C385.714 580.161 384.154 580.309 382.601 580.306C382.364 584.204 381.981 587.497 384.769 590.711C386.843 593.103 389.731 594.379 392.865 594.544C395.99 594.709 399.212 593.882 401.545 591.709C401.669 591.595 401.791 591.477 401.909 591.357C402.028 591.237 402.143 591.114 402.255 590.987C402.367 590.861 402.476 590.732 402.581 590.601C402.687 590.469 402.789 590.335 402.888 590.198C402.987 590.061 403.082 589.922 403.174 589.781C403.266 589.639 403.354 589.495 403.439 589.349C403.523 589.203 403.604 589.055 403.681 588.905C403.759 588.755 403.832 588.603 403.902 588.45C403.971 588.296 404.037 588.14 404.098 587.983C404.16 587.826 404.218 587.668 404.272 587.508C404.326 587.348 404.375 587.186 404.421 587.024C404.467 586.862 404.508 586.698 404.546 586.534C404.583 586.369 404.616 586.204 404.646 586.037C404.675 585.871 404.7 585.704 404.721 585.537C404.741 585.369 404.758 585.202 404.77 585.034C404.782 584.865 404.79 584.697 404.794 584.528C404.823 583.096 404.678 581.629 404.581 580.199C403.519 580.061 402.411 580.159 401.339 580.086C400.753 580.045 400.598 580.14 400.2 579.691C396.856 576.96 393.225 575.397 390.375 571.975C393.661 573.77 396.357 574.622 400.121 574.602C401.973 574.35 403.318 573.865 404.738 572.612C408.814 569.017 410.494 562.241 410.739 557.041C410.246 555.764 410.372 554.334 409.881 553.019C409.866 552.957 409.848 552.896 409.833 552.834C409.234 550.345 410.28 547.689 407.711 546.119Z" fill="#F3A17D"/>
<path d="M390.371 571.976C393.221 575.398 396.853 576.96 400.197 579.692L400.118 574.603C396.354 574.622 393.657 573.771 390.371 571.976Z" fill="#F67455"/>
<path d="M404.734 572.613C403.314 573.866 401.969 574.351 400.117 574.603L400.196 579.692C400.593 580.141 400.749 580.046 401.335 580.086C402.407 580.16 403.515 580.061 404.577 580.2C406.719 580.456 408.973 580.278 411.126 580.173C412.479 579.816 413.827 579.363 415.05 578.673C417.576 577.248 419.262 574.816 419.984 572.029C422.356 562.872 413.364 561.802 410.865 557.283C410.821 557.203 410.778 557.122 410.735 557.042C410.49 562.242 408.81 569.018 404.734 572.613Z" fill="#04104C"/>
<path d="M749.556 685.529C749.548 684.764 749.53 683.998 749.502 683.232C749.475 682.467 749.438 681.702 749.392 680.938C749.346 680.173 749.29 679.409 749.225 678.646C749.16 677.883 749.086 677.12 749.002 676.359C748.919 675.597 748.826 674.837 748.723 674.078C748.62 673.319 748.509 672.561 748.388 671.805C748.267 671.049 748.136 670.294 747.997 669.541C747.857 668.788 747.708 668.036 747.55 667.287C747.392 666.537 747.224 665.79 747.048 665.044C746.871 664.299 746.686 663.556 746.491 662.815C746.296 662.074 746.092 661.336 745.879 660.6C745.666 659.865 745.444 659.132 745.213 658.401C739.55 640.131 726.034 620.94 708.865 611.955C711.722 622.593 711.079 634.271 705.524 644.004C703.659 647.272 701.282 650.162 698.652 652.838C705.897 653.037 713.16 652.701 720.409 652.735C720.383 656.697 720.372 660.66 720.376 664.623C720.38 668.586 720.398 672.549 720.431 676.511L720.432 677.864C720.422 685.761 720.083 693.824 720.429 701.706L720.422 703.057L720.438 727.422L720.402 728.705C720.388 736.65 720.487 744.611 720.351 752.554L720.849 753.549C722.688 751.434 724.727 749.498 726.594 747.406C731.468 741.944 735.526 736.233 738.97 729.775C739.324 729.096 739.67 728.412 740.007 727.724C740.345 727.037 740.674 726.345 740.994 725.65C741.315 724.954 741.626 724.254 741.93 723.551C742.233 722.848 742.528 722.141 742.813 721.43C743.099 720.719 743.376 720.006 743.645 719.288C743.913 718.571 744.172 717.85 744.423 717.126C744.674 716.402 744.915 715.675 745.148 714.946C745.38 714.216 745.604 713.483 745.819 712.748C746.033 712.013 746.239 711.275 746.436 710.535C746.632 709.794 746.819 709.052 746.998 708.307C747.176 707.562 747.345 706.815 747.505 706.065C747.665 705.317 747.815 704.566 747.957 703.813C748.098 703.06 748.23 702.306 748.353 701.55C748.476 700.794 748.59 700.036 748.694 699.277C748.798 698.518 748.893 697.758 748.978 696.997C749.064 696.236 749.14 695.474 749.207 694.711C749.273 693.948 749.331 693.184 749.379 692.419C749.427 691.655 749.465 690.89 749.494 690.125C749.523 689.359 749.543 688.594 749.553 687.827C749.564 687.061 749.565 686.295 749.556 685.529Z" fill="#B2D9F7"/>
<path d="M405.594 775.102C406.045 774.626 405.951 774.407 405.985 773.768L405.843 772.247C405.682 770.381 404.763 766.579 406.12 765.024C406.708 764.35 407.579 764.204 408.415 764.123C408.506 761.761 408.244 759.263 408.195 756.884L405.285 756.976C405.362 735.19 403.646 713.301 402.803 691.53C397.348 691.338 391.833 691.535 386.372 691.553C381.94 691.568 377.189 692.007 372.936 690.57L372.701 690.589C367.228 690.985 358.184 689.606 353.265 691.027C351.182 691.629 349.465 692.764 348.035 694.376C346.962 695.585 346.042 697.084 345.772 698.699C345.284 701.625 345.54 704.944 345.532 707.915L345.505 724.956L345.48 750.403C345.479 754.849 345.257 759.429 345.569 763.856C345.813 767.321 347.136 769.976 349.777 772.254C350.926 773.243 352.216 774.015 353.402 774.946C356.355 775.227 405.234 775.212 405.594 775.102Z" fill="#44BBDB"/>
<path d="M688.432 652.735L669.055 652.712L664.281 652.705C655.825 652.811 647.37 652.848 638.914 652.818C638.905 663.99 638.77 675.177 638.888 686.349C648.463 689.057 656.226 694.276 662.652 701.85C669.672 701.57 676.73 701.685 683.756 701.691L720.429 701.705C720.083 693.823 720.422 685.76 720.432 677.863L642.49 677.95C641.275 677.957 639.906 678.046 638.997 677.147L639.068 676.643C641.798 676.217 644.869 676.478 647.644 676.478L663.375 676.481L720.431 676.511C720.398 672.548 720.38 668.585 720.376 664.622C720.373 660.66 720.383 656.697 720.409 652.734C713.16 652.7 705.897 653.036 698.653 652.837C695.303 652.587 691.794 652.744 688.432 652.735Z" fill="#3455B4"/>
<path d="M662.648 701.85L663.731 703.121C682.61 702.717 701.535 703.049 720.419 703.057L720.426 701.705L683.752 701.691C676.726 701.686 669.669 701.571 662.648 701.85Z" fill="#04104C"/>
<path d="M647.643 676.478C644.867 676.478 641.797 676.218 639.067 676.644L638.996 677.148C639.905 678.046 641.274 677.957 642.489 677.951L720.431 677.864L720.43 676.511L663.374 676.481L647.643 676.478Z" fill="#04104C"/>
<path d="M663.734 703.121C669.104 710.296 672.436 718.342 673.128 727.338L720.439 727.421L720.423 703.056C701.539 703.049 682.613 702.717 663.734 703.121Z" fill="#3455B4"/>
<path d="M673.2 728.737C688.927 728.417 704.674 728.882 720.403 728.705L720.44 727.421L673.129 727.339L673.2 728.737Z" fill="#04104C"/>
<path d="M690.615 516.233L690.449 516.328C690.429 516.429 690.406 516.528 690.375 516.625L690.615 516.233Z" fill="#FBC76F"/>
<path d="M686.542 529.023C686.97 528.839 687.385 528.63 687.786 528.396C688.575 527.16 689.285 525.897 688.983 524.374C688.782 523.356 688.018 522.507 687.138 522.001C686.359 521.555 685.538 521.208 684.675 520.96C684.655 523.554 684.352 526.6 684.792 529.136C685.403 529.399 685.933 529.278 686.542 529.023Z" fill="#F9AB50"/>
<path d="M383.502 662.269C382.992 661.959 382.84 661.645 382.669 661.099L382.969 660.571C383.862 659.898 384.965 659.831 386.042 659.651C383.849 659.382 366.593 655.956 365.682 654.947C369.427 655.175 373.41 656.401 377.065 657.235C381.02 658.138 385.224 659.408 389.259 659.804C392.308 660.104 395.381 659.874 398.439 659.86C400.438 659.85 402.466 660.034 404.459 659.869C405.669 659.768 406.374 659.515 407.009 658.427C408.625 655.653 408.703 651.031 409.169 647.855C410.13 641.137 411.164 634.43 412.27 627.734C412.745 624.809 413.043 621.711 413.797 618.853C414.085 617.765 414.506 616.541 415.291 615.703C417.036 613.839 422.262 614.531 424.728 614.52C423.861 608.655 422.951 602.796 421.998 596.944C421.552 594.301 420.889 591.649 420.532 588.997C420.476 588.585 420.495 588.387 420.666 588.011C420.649 587.936 420.642 587.857 420.615 587.785C419.284 584.166 414.403 581.661 411.127 580.173C408.975 580.278 406.721 580.456 404.578 580.2C404.676 581.629 404.821 583.096 404.792 584.528C404.788 584.697 404.78 584.866 404.768 585.034C404.755 585.202 404.739 585.37 404.718 585.537C404.698 585.705 404.672 585.872 404.643 586.038C404.614 586.204 404.581 586.369 404.543 586.534C404.506 586.698 404.464 586.862 404.419 587.024C404.373 587.187 404.323 587.348 404.269 587.508C404.215 587.668 404.158 587.827 404.096 587.984C404.034 588.141 403.969 588.296 403.899 588.45C403.83 588.604 403.756 588.755 403.679 588.905C403.602 589.055 403.521 589.203 403.436 589.349C403.352 589.495 403.263 589.639 403.171 589.781C403.08 589.922 402.984 590.061 402.886 590.198C402.787 590.335 402.684 590.469 402.579 590.601C402.473 590.732 402.364 590.861 402.252 590.988C402.14 591.114 402.025 591.237 401.907 591.357C401.788 591.478 401.667 591.595 401.543 591.709C399.209 593.883 395.987 594.709 392.863 594.544C389.728 594.379 386.841 593.103 384.766 590.711C381.979 587.497 382.361 584.204 382.599 580.307C380.116 580.344 377.642 580.482 375.187 580.871C370.901 582.503 367.554 584.019 364.466 587.558C362.391 589.938 360.899 593.306 359.414 596.092C356.807 601.004 354.227 605.93 351.672 610.869L343.617 626.352C342.022 629.393 340.223 632.351 338.828 635.49C337.513 638.45 337.064 640.635 338.288 643.782C339.378 646.586 341.266 648.517 344.055 649.717C347.517 651.206 351.719 651.725 355.398 652.552C358.801 653.317 362.169 654.229 365.569 654.994C365.244 658.031 364.63 661.515 363.622 664.417C367.221 664.396 383.064 664.303 385.524 663.156C384.86 662.905 384.107 662.636 383.502 662.269ZM387.731 647.621C389.057 646.217 392.798 645.848 394.655 645.571C394.72 645.564 394.785 645.554 394.85 645.551C397.27 645.413 399.989 646.246 401.813 647.845C403.481 649.305 404.39 651.391 404.526 653.584C404.66 655.75 404.164 658.027 402.685 659.671C402.145 659.478 402.14 659.18 401.894 658.689C401.172 658.512 399.314 659.348 398.44 659.533C396.216 658.399 395.506 656.573 394.518 654.414C392.682 653.286 387.675 651.269 387.297 648.897C387.218 648.4 387.392 647.98 387.731 647.621ZM361.625 637.078L358.947 636.005C361.435 632.177 364.143 628.01 367.385 624.781L367.572 624.905C367.584 626.372 367.257 627.913 367.123 629.384C366.841 632.586 366.585 635.789 366.352 638.995C364.766 638.381 363.191 637.742 361.625 637.078Z" fill="#7B89DE"/>
<path d="M367.121 629.384C367.255 627.913 367.582 626.372 367.57 624.905L367.383 624.781C364.141 628.01 361.433 632.177 358.945 636.005L361.623 637.078C363.189 637.742 364.764 638.381 366.35 638.995C366.582 635.789 366.839 632.586 367.121 629.384Z" fill="#F9FBFD"/>
<path d="M394.518 654.415C395.505 656.574 396.215 658.399 398.439 659.533C399.314 659.348 401.172 658.512 401.894 658.689C402.139 659.18 402.145 659.478 402.685 659.671C404.164 658.027 404.659 655.75 404.525 653.584C404.39 651.391 403.48 649.305 401.813 647.845C399.988 646.246 397.269 645.413 394.849 645.551C394.784 645.555 394.72 645.565 394.655 645.571C392.797 645.848 389.056 646.217 387.73 647.621C387.391 647.98 387.217 648.401 387.296 648.897C387.674 651.269 392.682 653.286 394.518 654.415Z" fill="#F9AB50"/>
<path d="M420.534 588.997C420.891 591.648 421.554 594.3 422 596.944C422.953 602.796 423.863 608.654 424.73 614.519C422.264 614.53 417.038 613.839 415.293 615.703C414.508 616.541 414.086 617.765 413.799 618.853C413.045 621.71 412.747 624.809 412.272 627.734C411.166 634.43 410.132 641.137 409.171 647.855C408.705 651.03 408.627 655.653 407.011 658.426C406.376 659.515 405.671 659.768 404.461 659.869C402.468 660.034 400.44 659.849 398.441 659.859C395.383 659.874 392.31 660.104 389.261 659.804C385.226 659.407 381.022 658.138 377.067 657.235C373.412 656.401 369.429 655.174 365.684 654.947C366.595 655.956 383.851 659.381 386.044 659.65C384.967 659.83 383.864 659.898 382.971 660.57L382.67 661.099C382.842 661.645 382.994 661.958 383.504 662.269C384.109 662.636 384.862 662.904 385.525 663.155C397.071 662.748 408.708 662.893 420.254 663.241C426.702 663.215 433.152 663.051 439.599 663.075C446.585 663.134 453.575 662.895 460.559 663.06C459.608 661.335 458.968 659.78 459.536 657.79C459.864 656.641 460.61 655.643 461.689 655.104C463.204 654.348 464.633 654.597 466.176 655.088C466.16 652.576 466.238 650.031 466.544 647.536C467.005 643.791 471.604 617.594 470.865 615.935C470.489 615.09 469.772 614.774 468.98 614.42C466.178 614.613 463.316 614.506 460.506 614.498L440.621 614.5L425.36 614.479C424.574 607.767 423.471 600.917 422.193 594.275C421.787 592.165 421.005 590.129 420.668 588.011C420.497 588.387 420.478 588.585 420.534 588.997ZM438.437 635.65C438.699 634.403 439.36 633.834 440.368 633.129C440.847 633.105 441.342 633.072 441.82 633.113C442.663 633.185 443.57 633.754 444.072 634.421C444.591 635.112 444.75 635.969 444.583 636.808C444.331 638.086 443.441 638.786 442.422 639.488C441.925 639.584 441.367 639.692 440.862 639.623C440.768 639.61 440.675 639.593 440.583 639.572C440.491 639.55 440.4 639.524 440.311 639.493C440.221 639.463 440.134 639.428 440.048 639.388C439.961 639.349 439.877 639.306 439.795 639.258C439.714 639.211 439.634 639.159 439.557 639.104C439.481 639.048 439.407 638.989 439.336 638.927C439.265 638.864 439.197 638.798 439.133 638.729C439.068 638.66 439.007 638.588 438.95 638.512C438.335 637.695 438.231 636.631 438.437 635.65Z" fill="#04104C"/>
<path d="M439.132 638.729C439.196 638.798 439.264 638.864 439.335 638.927C439.406 638.99 439.48 639.049 439.556 639.104C439.633 639.159 439.712 639.211 439.794 639.258C439.876 639.306 439.96 639.349 440.046 639.389C440.132 639.428 440.22 639.463 440.31 639.493C440.399 639.524 440.49 639.55 440.582 639.572C440.674 639.593 440.767 639.611 440.861 639.623C441.366 639.692 441.924 639.585 442.421 639.488C443.44 638.787 444.329 638.087 444.582 636.809C444.748 635.969 444.59 635.112 444.071 634.422C443.569 633.754 442.661 633.185 441.819 633.113C441.341 633.072 440.846 633.106 440.367 633.129C439.359 633.834 438.698 634.403 438.436 635.65C438.23 636.631 438.334 637.696 438.949 638.512C439.006 638.588 439.067 638.66 439.132 638.729Z" fill="#F9FBFD"/>
<path d="M466.174 655.089C464.631 654.598 463.203 654.348 461.687 655.105C460.608 655.643 459.862 656.642 459.534 657.791C458.966 659.781 459.606 661.336 460.557 663.061L460.748 663.187C461.563 663.396 462.553 663.588 463.395 663.536C464.66 663.456 465.35 662.712 466.161 661.825C466.582 659.604 466.337 657.325 466.174 655.089Z" fill="#F9AB50"/>
<path d="M425.357 614.479L440.617 614.5C439.422 612.625 437.892 610.966 436.689 609.081C434.068 605.833 431.817 602.308 429.383 598.922C426.681 595.164 423.705 591.499 420.664 588.011C421.001 590.129 421.784 592.165 422.19 594.275C423.467 600.917 424.57 607.767 425.357 614.479Z" fill="#7B89DE"/>
<path d="M696.505 753.132C686.549 753.093 676.532 752.726 666.586 753.056C659.585 764.014 648.868 771.352 636.117 774.104C633.949 774.566 631.761 774.89 629.553 775.074C628.262 775.212 626.965 775.326 625.666 775.31C612.811 775.155 600.425 768.714 591.632 759.643C583.642 759.731 575.639 759.55 567.648 759.531L516.989 759.477L488.01 759.476C482.946 759.475 477.707 759.736 472.662 759.358C471.246 759.252 469.913 759.008 468.863 757.978C467.421 756.565 466.708 753.909 466.489 751.935C466.087 748.303 466.321 744.488 466.336 740.83L466.37 722.079L466.159 661.825C465.348 662.712 464.658 663.456 463.393 663.536C462.551 663.589 461.561 663.396 460.746 663.187C460.751 672.087 460.404 681.153 460.8 690.035C460.313 692.994 460.611 696.35 460.616 699.359L460.652 716.955L460.695 745.226C460.707 750.669 460.384 756.41 461.073 761.812C461.445 764.736 462.731 768.054 464.442 770.469C465.692 772.233 467.26 773.719 468.809 775.216C463.396 775.22 457.956 775.314 452.546 775.161C449.719 773.147 446.554 771.605 443.894 769.357C442.702 768.349 440.751 765.046 439.641 764.607C438.329 764.884 436.719 764.776 435.38 764.724C434.109 764.674 432.389 764.719 431.477 763.731C430.622 763.799 429.936 763.948 429.361 764.64C427.945 766.343 428.637 769.629 428.922 771.649C428.955 771.882 428.932 771.794 428.996 771.97C429.107 771.676 429.097 771.439 429.409 771.306C430.681 770.764 433.151 771.085 434.529 771.114C434.548 772.432 434.669 773.644 434.91 774.94C433.348 774.8 431.703 774.676 430.148 774.914C429.975 775.1 429.855 775.212 429.759 775.451C430.099 775.739 430.404 776.021 430.7 776.355C431.931 776.737 433.151 776.356 434.347 776.655C433.107 776.696 430.593 776.309 429.615 776.879L644.999 776.773L714.079 776.79C724.717 776.812 735.388 777.126 746.021 776.944C746.818 776.93 747.777 776.964 748.481 776.565C748.67 776.043 748.713 775.991 748.569 775.462C747.317 774.722 724.001 775.069 720.649 775.047C720.631 771.068 720.103 756.284 720.846 753.549C720.388 753.274 719.922 753.191 719.395 753.165C711.835 752.791 704.085 753.161 696.505 753.132Z" fill="url(#paint1_linear_1_742)"/>
<path d="M429.763 775.451C429.859 775.212 429.979 775.1 430.152 774.914C431.708 774.676 433.352 774.799 434.915 774.94C434.674 773.644 434.553 772.432 434.533 771.114C433.155 771.085 430.685 770.764 429.414 771.306C429.102 771.439 429.111 771.676 429 771.97C429.14 773.123 429.267 774.27 429.516 775.406L429.763 775.451Z" fill="#04104C"/>
<path d="M718.941 751.875C714.966 751.326 708.024 751.713 703.808 751.708L667.254 751.872L666.59 753.056C676.536 752.725 686.553 753.093 696.508 753.131C704.089 753.161 711.839 752.791 719.399 753.165C719.925 753.191 720.392 753.274 720.85 753.549L720.351 752.553C719.907 752.213 719.502 751.953 718.941 751.875Z" fill="#04104C"/>
<path d="M673.198 728.736C673.13 737.198 671.398 744.461 667.254 751.872L703.808 751.708C708.024 751.713 714.966 751.326 718.941 751.875C719.502 751.953 719.907 752.213 720.351 752.553C720.487 744.61 720.388 736.649 720.402 728.704C704.673 728.882 688.926 728.417 673.198 728.736Z" fill="#3455B4"/>
<path d="M459.321 690.517C456.578 690.603 453.792 690.49 451.047 690.423L442.269 756.914L440.259 756.738C439.862 759.242 439.003 762.101 439.645 764.608C440.755 765.047 442.706 768.35 443.899 769.358C446.558 771.606 449.723 773.148 452.55 775.162C457.96 775.315 463.4 775.221 468.813 775.217C467.265 773.719 465.696 772.234 464.446 770.47C462.735 768.055 461.45 764.737 461.077 761.813C460.388 756.411 460.712 750.67 460.699 745.227L460.656 716.956L460.62 699.36C460.615 696.351 460.317 692.995 460.804 690.036C460.331 690.535 459.996 690.496 459.321 690.517Z" fill="#44BBDB"/>
<path d="M431.253 756.679C434.254 756.715 437.254 756.734 440.255 756.738L442.266 756.914L451.043 690.424C451.669 686.681 452.171 683.075 451.394 679.311C449.921 672.176 445.578 666.959 439.595 663.077C433.148 663.052 426.698 663.217 420.25 663.243C427.169 667.142 431.636 670.002 433.927 678.088C434.217 679.089 434.428 680.107 434.559 681.141C434.69 682.176 434.74 683.214 434.71 684.256C434.621 688.293 433.798 692.346 433.1 696.315C431.009 708.188 427.572 720.02 426.165 731.98C427.151 739.789 426.94 749.105 428.287 756.633L431.253 756.679Z" fill="#142E8D"/>
<path d="M440.26 756.737C437.259 756.734 434.258 756.714 431.258 756.679C431.374 758.945 431.747 761.487 431.483 763.731C432.394 764.72 434.114 764.674 435.385 764.724C436.724 764.777 438.334 764.885 439.646 764.607C439.004 762.101 439.863 759.242 440.26 756.737Z" fill="#F9AB50"/>
<path d="M439.598 663.076C445.581 666.958 449.924 672.176 451.397 679.31C452.174 683.075 451.672 686.68 451.046 690.423C453.791 690.489 456.577 690.602 459.32 690.516C459.995 690.495 460.33 690.534 460.803 690.035C460.407 681.153 460.754 672.087 460.749 663.187L460.558 663.061C453.573 662.896 446.584 663.135 439.598 663.076Z" fill="#F9FBFD"/>
<path d="M386.371 691.553C391.831 691.535 397.347 691.338 402.802 691.53C403.644 713.301 405.361 735.19 405.283 756.976L408.194 756.884C411.359 756.881 414.562 756.784 417.721 756.973C418.903 757.086 420.115 757.096 421.303 757.147C421.775 753.246 424.94 734.752 426.167 731.979C427.574 720.019 431.011 708.187 433.102 696.315C433.801 692.345 434.623 688.292 434.712 684.255C434.742 683.213 434.692 682.175 434.561 681.141C434.43 680.106 434.219 679.088 433.929 678.087C431.638 670.001 427.171 667.141 420.252 663.242C408.706 662.894 397.069 662.749 385.523 663.156C383.063 664.303 367.22 664.396 363.621 664.417C361.712 671.032 361.709 677.216 365.123 683.4C365.34 683.794 365.573 684.179 365.821 684.554C366.069 684.93 366.332 685.294 366.61 685.648C366.888 686.002 367.18 686.344 367.485 686.674C367.791 687.004 368.109 687.321 368.441 687.626C368.772 687.93 369.116 688.22 369.471 688.497C369.826 688.773 370.191 689.034 370.568 689.281C370.944 689.528 371.33 689.758 371.725 689.974C372.12 690.189 372.523 690.388 372.934 690.57C377.187 692.007 381.938 691.568 386.371 691.553Z" fill="#3455B4"/>
<path d="M408.195 756.884C408.245 759.264 408.506 761.761 408.415 764.123C410.402 765.677 414.043 764.87 416.439 765.173C416.963 762.46 417.553 759.736 417.722 756.973C414.564 756.784 411.36 756.881 408.195 756.884Z" fill="#F9AB50"/>
<path d="M431.255 756.678L428.288 756.631C426.942 749.104 427.153 739.787 426.166 731.979C424.94 734.751 421.775 753.246 421.303 757.147C420.115 757.095 418.903 757.086 417.72 756.973C417.551 759.736 416.961 762.459 416.438 765.173C419.523 768.708 422.408 771.477 426.291 774.141C427.162 774.738 428.085 775.535 429.143 775.72L429.513 775.406C429.265 774.27 429.138 773.123 428.997 771.97C428.934 771.794 428.957 771.882 428.924 771.649C428.639 769.629 427.947 766.343 429.362 764.64C429.937 763.948 430.624 763.799 431.479 763.73C431.744 761.486 431.371 758.944 431.255 756.678Z" fill="#44BBDB"/>
<path d="M631.916 772.576C645.713 766.772 654.564 764.221 660.999 749.528C667.351 735.027 667.608 722.912 659.733 708.856C657.748 705.312 655.511 701.599 652.434 698.888C650.953 697.581 649.258 696.348 647.612 695.259C645.134 693.62 634.827 687.932 633.993 685.803L634.481 685.607C627.746 684.179 621.012 685.133 614.301 686.056C612.212 686.604 610.178 687.4 608.197 688.255C605.652 689.372 603.09 690.444 600.731 691.929C593.182 696.686 586.716 704.762 583.462 713.044C579.169 723.968 579.146 736.739 583.855 747.553C585.753 751.912 588.574 756.008 591.632 759.643C600.425 768.714 612.81 775.155 625.665 775.311C626.964 775.327 628.261 775.212 629.552 775.075C628.928 775.009 628.508 775.075 628.008 774.669C628.703 773.661 630.804 773.045 631.916 772.576ZM617.01 767.709C607.502 765.556 598.064 759.098 592.909 750.781C587.504 742.06 585.522 731.678 587.907 721.676C590.251 711.846 595.906 703.31 604.568 697.992C604.841 697.824 605.116 697.659 605.393 697.498C605.67 697.336 605.949 697.178 606.23 697.023C606.511 696.868 606.794 696.717 607.079 696.569C607.364 696.422 607.65 696.277 607.938 696.136C608.227 695.996 608.517 695.859 608.808 695.725C609.1 695.591 609.393 695.461 609.688 695.335C609.983 695.208 610.279 695.085 610.577 694.966C610.875 694.847 611.174 694.731 611.474 694.619C611.775 694.507 612.077 694.399 612.38 694.294C612.683 694.19 612.988 694.089 613.294 693.992C613.6 693.895 613.907 693.801 614.215 693.712C614.522 693.622 614.831 693.536 615.142 693.454C615.452 693.372 615.763 693.294 616.075 693.22C616.387 693.145 616.7 693.074 617.013 693.008C617.327 692.941 617.642 692.878 617.957 692.819C618.272 692.76 618.588 692.704 618.905 692.653C619.222 692.602 619.539 692.554 619.857 692.51C620.175 692.467 620.493 692.427 620.812 692.391C621.131 692.356 621.45 692.324 621.769 692.296C622.089 692.267 622.409 692.243 622.729 692.223C623.049 692.203 623.369 692.186 623.69 692.174C624.01 692.162 624.331 692.153 624.652 692.148C624.973 692.144 625.293 692.143 625.614 692.147C625.935 692.15 626.256 692.157 626.576 692.168C626.897 692.179 627.217 692.194 627.538 692.214C627.858 692.233 628.178 692.255 628.497 692.282C628.817 692.309 629.136 692.34 629.455 692.374C629.774 692.409 630.093 692.447 630.411 692.49C630.729 692.532 631.046 692.578 631.363 692.629C631.68 692.679 631.996 692.733 632.312 692.79C632.627 692.848 632.942 692.91 633.256 692.976C633.57 693.041 633.883 693.11 634.195 693.184C643.456 695.442 652.508 702.054 657.438 710.214C657.603 710.487 657.764 710.762 657.922 711.039C658.079 711.316 658.234 711.595 658.385 711.875C658.536 712.156 658.683 712.438 658.827 712.722C658.971 713.007 659.112 713.293 659.249 713.58C659.386 713.868 659.52 714.157 659.65 714.448C659.78 714.739 659.907 715.032 660.03 715.326C660.153 715.62 660.272 715.915 660.387 716.212C660.503 716.509 660.615 716.808 660.724 717.107C660.832 717.407 660.937 717.708 661.038 718.01C661.139 718.312 661.237 718.615 661.33 718.92C661.424 719.225 661.514 719.53 661.6 719.837C661.687 720.144 661.769 720.452 661.848 720.761C661.926 721.069 662.001 721.379 662.072 721.69C662.144 722 662.211 722.312 662.275 722.624C662.338 722.936 662.398 723.249 662.454 723.563C662.51 723.877 662.562 724.191 662.611 724.506C662.659 724.821 662.703 725.137 662.744 725.453C662.784 725.769 662.821 726.085 662.854 726.402C662.887 726.719 662.916 727.037 662.941 727.354C662.966 727.672 662.988 727.99 663.005 728.308C663.022 728.626 663.036 728.945 663.046 729.263C663.055 729.582 663.061 729.9 663.063 730.219C663.065 730.538 663.062 730.856 663.056 731.175C663.05 731.494 663.041 731.812 663.027 732.13C663.013 732.449 662.996 732.767 662.974 733.085C662.953 733.403 662.927 733.721 662.898 734.038C662.869 734.355 662.836 734.672 662.799 734.989C662.762 735.305 662.721 735.621 662.676 735.937C662.632 736.252 662.583 736.567 662.531 736.882C662.479 737.196 662.422 737.51 662.362 737.822C662.302 738.135 662.239 738.448 662.171 738.759C662.103 739.07 662.032 739.381 661.957 739.691C660.852 744.046 659.09 748.708 656.294 752.277C650.273 760.568 640.232 766.688 630.137 768.33C629.827 768.38 629.919 768.364 629.555 768.384C625.455 769.058 621.037 768.622 617.01 767.709Z" fill="#F9AB50"/>
<path d="M673.128 727.339C672.435 718.343 669.103 710.297 663.734 703.122L662.652 701.85C656.226 694.276 648.463 689.057 638.888 686.349C637.421 686.053 635.968 685.799 634.485 685.606L633.996 685.802C634.831 687.932 645.137 693.619 647.616 695.258C649.262 696.348 650.956 697.581 652.438 698.887C655.514 701.599 657.751 705.312 659.736 708.856C667.611 722.912 667.354 735.026 661.003 749.527C654.567 764.22 645.716 766.772 631.92 772.576C630.807 773.044 628.706 773.66 628.012 774.669C628.511 775.075 628.931 775.008 629.556 775.074C631.764 774.889 633.953 774.566 636.121 774.104C648.871 771.351 659.588 764.014 666.59 753.056L667.254 751.872C671.398 744.461 673.13 737.198 673.198 728.736L673.128 727.339Z" fill="#ED7521"/>
<path d="M630.141 768.33C640.236 766.688 650.277 760.568 656.299 752.277C659.094 748.708 660.856 744.046 661.961 739.69C662.036 739.381 662.108 739.07 662.175 738.759C662.243 738.447 662.306 738.135 662.366 737.822C662.427 737.509 662.483 737.196 662.535 736.881C662.587 736.567 662.636 736.252 662.681 735.937C662.725 735.621 662.766 735.305 662.803 734.989C662.84 734.672 662.873 734.355 662.902 734.038C662.932 733.721 662.957 733.403 662.978 733.085C663 732.767 663.017 732.449 663.031 732.13C663.045 731.812 663.054 731.493 663.061 731.175C663.067 730.856 663.069 730.538 663.067 730.219C663.065 729.9 663.059 729.582 663.05 729.263C663.04 728.945 663.027 728.626 663.009 728.308C662.992 727.99 662.971 727.672 662.945 727.354C662.92 727.036 662.891 726.719 662.858 726.402C662.825 726.085 662.789 725.769 662.748 725.453C662.707 725.137 662.663 724.821 662.615 724.506C662.566 724.191 662.514 723.877 662.458 723.563C662.402 723.249 662.343 722.936 662.279 722.624C662.215 722.312 662.148 722 662.077 721.69C662.006 721.379 661.931 721.069 661.852 720.761C661.773 720.452 661.691 720.144 661.604 719.837C661.518 719.53 661.428 719.225 661.334 718.92C661.241 718.615 661.143 718.312 661.042 718.01C660.941 717.707 660.836 717.407 660.728 717.107C660.619 716.807 660.507 716.509 660.392 716.212C660.276 715.915 660.157 715.62 660.034 715.326C659.911 715.032 659.784 714.739 659.654 714.448C659.524 714.157 659.39 713.868 659.254 713.58C659.116 713.293 658.976 713.007 658.831 712.722C658.688 712.438 658.54 712.156 658.389 711.875C658.238 711.594 658.084 711.316 657.926 711.039C657.768 710.762 657.607 710.487 657.442 710.214C652.513 702.054 643.46 695.442 634.2 693.183C633.887 693.11 633.574 693.041 633.26 692.975C632.946 692.91 632.631 692.848 632.316 692.79C632 692.732 631.684 692.678 631.367 692.628C631.05 692.578 630.733 692.532 630.415 692.49C630.097 692.447 629.779 692.409 629.459 692.374C629.141 692.34 628.821 692.309 628.502 692.282C628.182 692.255 627.862 692.232 627.542 692.214C627.221 692.194 626.901 692.179 626.581 692.168C626.26 692.157 625.939 692.15 625.618 692.147C625.297 692.143 624.977 692.144 624.656 692.148C624.335 692.153 624.015 692.162 623.694 692.174C623.374 692.186 623.053 692.203 622.733 692.223C622.413 692.243 622.093 692.267 621.773 692.295C621.454 692.324 621.135 692.356 620.816 692.391C620.497 692.427 620.179 692.467 619.861 692.51C619.543 692.554 619.226 692.602 618.909 692.653C618.593 692.704 618.277 692.76 617.961 692.819C617.646 692.878 617.331 692.941 617.017 693.007C616.704 693.074 616.391 693.145 616.079 693.22C615.767 693.294 615.456 693.372 615.146 693.454C614.836 693.536 614.526 693.622 614.219 693.712C613.911 693.801 613.604 693.895 613.298 693.992C612.992 694.089 612.688 694.19 612.384 694.294C612.081 694.399 611.779 694.507 611.479 694.619C611.178 694.731 610.879 694.847 610.581 694.966C610.283 695.085 609.987 695.208 609.692 695.334C609.397 695.461 609.104 695.591 608.812 695.725C608.521 695.859 608.231 695.996 607.943 696.136C607.654 696.277 607.368 696.421 607.083 696.569C606.798 696.717 606.516 696.868 606.235 697.023C605.953 697.178 605.674 697.336 605.397 697.497C605.12 697.659 604.845 697.824 604.572 697.992C595.911 703.31 590.255 711.846 587.911 721.676C585.526 731.678 587.509 742.06 592.914 750.78C598.068 759.097 607.507 765.556 617.014 767.709C621.041 768.621 625.46 769.058 629.559 768.384C629.924 768.364 629.832 768.38 630.141 768.33ZM623.052 767.683C613.193 767.091 603.452 762.18 596.971 754.745C590.96 747.849 587.066 737.164 587.752 727.992C587.776 727.677 587.803 727.363 587.834 727.048C587.865 726.734 587.9 726.42 587.939 726.106C587.978 725.793 588.021 725.48 588.067 725.168C588.114 724.855 588.164 724.543 588.219 724.232C588.273 723.921 588.331 723.611 588.393 723.301C588.455 722.991 588.521 722.682 588.59 722.374C588.66 722.066 588.733 721.759 588.81 721.452C588.887 721.146 588.968 720.841 589.052 720.537C589.137 720.232 589.225 719.929 589.317 719.627C589.409 719.325 589.505 719.023 589.605 718.724C589.704 718.424 589.807 718.126 589.914 717.828C590.021 717.531 590.131 717.235 590.245 716.941C590.359 716.646 590.477 716.353 590.598 716.061C590.719 715.77 590.844 715.48 590.972 715.191C591.101 714.903 591.233 714.616 591.368 714.33C591.504 714.045 591.643 713.762 591.785 713.48C591.928 713.197 592.074 712.917 592.223 712.639C592.372 712.361 592.525 712.085 592.681 711.81C592.837 711.535 592.997 711.263 593.16 710.992C593.323 710.721 593.489 710.453 593.658 710.186C593.828 709.92 594 709.655 594.176 709.393C594.352 709.131 594.531 708.871 594.714 708.613C594.896 708.355 595.082 708.099 595.27 707.846C595.459 707.593 595.651 707.342 595.846 707.093C596.04 706.845 596.238 706.598 596.439 706.354C596.64 706.111 596.844 705.87 597.051 705.631C597.258 705.392 597.467 705.156 597.68 704.922C597.892 704.689 598.108 704.458 598.326 704.229C598.545 704.001 598.766 703.776 598.99 703.553C599.214 703.33 599.44 703.11 599.669 702.893C599.899 702.675 600.131 702.461 600.365 702.249C600.6 702.038 600.837 701.829 601.076 701.624C608.584 695.23 619.072 692.401 628.81 693.202C638.66 694.012 647.628 699.337 653.891 706.863C660.724 715.074 662.817 725.404 661.813 735.823C660.624 742.055 658.335 747.363 654.845 752.668C647.265 761.175 638.963 766.71 627.296 767.71C625.88 767.746 624.466 767.769 623.052 767.683Z" fill="#F9FBFD"/>
<path d="M654.843 752.668C658.332 747.362 660.621 742.054 661.811 735.822C662.815 725.403 660.722 715.073 653.889 706.862C647.625 699.337 638.658 694.011 628.808 693.201C619.07 692.4 608.582 695.229 601.074 701.623C600.834 701.828 600.597 702.037 600.363 702.248C600.128 702.46 599.896 702.674 599.667 702.892C599.438 703.109 599.211 703.329 598.988 703.552C598.764 703.775 598.543 704 598.324 704.229C598.106 704.457 597.89 704.688 597.678 704.921C597.465 705.155 597.255 705.391 597.049 705.63C596.842 705.869 596.638 706.11 596.437 706.354C596.236 706.598 596.038 706.844 595.843 707.092C595.648 707.341 595.457 707.592 595.268 707.845C595.079 708.098 594.894 708.354 594.712 708.612C594.529 708.87 594.35 709.13 594.174 709.392C593.998 709.654 593.825 709.919 593.656 710.186C593.487 710.452 593.32 710.72 593.158 710.991C592.995 711.262 592.835 711.534 592.679 711.809C592.523 712.084 592.37 712.36 592.221 712.638C592.072 712.917 591.926 713.197 591.783 713.479C591.641 713.761 591.502 714.044 591.366 714.33C591.231 714.615 591.099 714.902 590.97 715.19C590.842 715.479 590.717 715.769 590.596 716.061C590.474 716.352 590.357 716.645 590.243 716.94C590.129 717.234 590.018 717.53 589.912 717.828C589.805 718.125 589.702 718.423 589.602 718.723C589.503 719.023 589.407 719.324 589.315 719.626C589.223 719.928 589.135 720.231 589.05 720.536C588.965 720.84 588.885 721.145 588.808 721.452C588.731 721.758 588.657 722.065 588.588 722.373C588.518 722.681 588.453 722.99 588.391 723.3C588.329 723.61 588.271 723.92 588.217 724.231C588.162 724.542 588.112 724.854 588.065 725.167C588.019 725.479 587.976 725.792 587.937 726.105C587.898 726.419 587.863 726.733 587.832 727.047C587.801 727.362 587.774 727.676 587.75 727.991C587.063 737.163 590.958 747.848 596.969 754.744C603.45 762.18 613.191 767.09 623.05 767.682C624.464 767.768 625.878 767.745 627.294 767.709C638.961 766.709 647.263 761.174 654.843 752.668ZM636.496 743.222C634.811 746.103 632.2 747.081 629.15 747.87C629.182 748.893 629.225 749.92 629.221 750.944C629.218 751.726 629.15 752.66 628.475 753.184C627.709 753.779 626.664 753.449 625.804 753.286C625.455 753.215 624.901 753.155 624.62 752.902C623.786 752.15 624.14 749.513 624.162 748.467C620.329 748.263 617.193 747.357 613.824 745.516C614.2 744.523 614.631 743.553 615.117 742.608C615.603 741.664 616.14 740.75 616.73 739.866C619.418 741.423 623.438 742.543 626.551 742.057C628.184 741.801 629.441 740.885 630.375 739.528C630.854 738.832 631.132 738.056 630.886 737.209C629.884 733.766 622.596 732.29 619.768 730.63C617.292 729.177 615.233 727.104 614.512 724.247C613.913 721.872 614.466 719.027 615.746 716.955C617.622 713.917 620.91 712.671 624.203 711.872C624.201 709.958 623.9 707.739 625.162 706.173C626.584 706.146 627.991 706.348 629.4 706.512L629.31 711.738C630.758 711.906 632.234 712.234 633.646 712.595C634.71 712.867 636.107 713.283 636.599 714.386C637.357 716.084 635.63 718.7 634.867 720.202C631.275 718.485 628.456 717.023 624.382 718.078C623.274 718.365 622.594 719.222 622.05 720.183C621.68 720.839 621.461 721.632 621.79 722.359C623.185 725.436 629.505 726.658 632.334 728.17C634.838 729.51 636.869 731.504 637.639 734.31C638.406 737.105 637.964 740.713 636.496 743.222Z" fill="#F9AB50"/>
<path d="M632.334 728.171C629.506 726.659 623.186 725.437 621.79 722.359C621.461 721.633 621.68 720.839 622.051 720.184C622.595 719.222 623.274 718.366 624.383 718.079C628.456 717.023 631.276 718.486 634.867 720.202C635.63 718.701 637.357 716.085 636.599 714.386C636.107 713.283 634.71 712.868 633.646 712.596C632.234 712.235 630.758 711.907 629.31 711.738L629.4 706.512C627.991 706.348 626.584 706.147 625.163 706.173C623.9 707.74 624.201 709.958 624.203 711.873C620.911 712.672 617.623 713.918 615.746 716.956C614.467 719.028 613.913 721.872 614.513 724.248C615.234 727.105 617.292 729.178 619.768 730.631C622.596 732.29 629.884 733.767 630.886 737.21C631.133 738.056 630.854 738.832 630.375 739.529C629.441 740.886 628.185 741.802 626.551 742.058C623.439 742.544 619.418 741.424 616.73 739.867C616.14 740.75 615.603 741.665 615.117 742.609C614.631 743.554 614.2 744.523 613.824 745.517C617.193 747.358 620.329 748.263 624.162 748.467C624.14 749.514 623.787 752.15 624.62 752.902C624.901 753.156 625.455 753.216 625.804 753.287C626.664 753.449 627.71 753.779 628.476 753.184C629.151 752.66 629.218 751.726 629.221 750.945C629.225 749.921 629.183 748.893 629.151 747.87C632.201 747.081 634.812 746.103 636.497 743.222C637.964 740.714 638.406 737.105 637.639 734.311C636.869 731.504 634.839 729.511 632.334 728.171Z" fill="#F9FBFD"/>
<path d="M470.133 448.348C470.16 448.513 470.196 448.677 470.239 448.839C470.283 449.001 470.334 449.16 470.393 449.317C470.452 449.473 470.519 449.627 470.594 449.777C471.354 451.325 472.769 452.388 474.407 452.873C475.276 453.13 476.114 453.094 477.007 453.028C478.747 452.287 480.223 451.472 480.97 449.614C481.52 448.243 481.347 446.684 480.698 445.378C480.608 445.201 480.51 445.029 480.404 444.862C480.298 444.695 480.183 444.534 480.061 444.378C479.939 444.222 479.81 444.072 479.674 443.929C479.537 443.786 479.394 443.649 479.244 443.52C479.094 443.39 478.938 443.268 478.776 443.154C478.615 443.04 478.448 442.934 478.275 442.836C478.103 442.738 477.927 442.648 477.746 442.567C477.566 442.486 477.382 442.414 477.194 442.352C476.245 442.037 475.28 442.057 474.294 442.101C472.481 442.932 471.043 443.906 470.347 445.873C470.292 446.031 470.245 446.192 470.206 446.355C470.167 446.518 470.136 446.682 470.113 446.848C470.09 447.014 470.076 447.181 470.07 447.348C470.064 447.516 470.066 447.683 470.077 447.85C470.087 448.017 470.106 448.183 470.133 448.348Z" fill="#44BBDB"/>
<path d="M678.797 625.055C680.202 623.109 681.858 621.42 683.339 619.547C674.742 611.17 665.503 606.169 653.295 605.961C649.39 612.617 649.702 623.743 651.614 630.986C654.002 640.033 658.259 645.8 664.278 652.705L669.052 652.711C670.429 642.602 672.703 633.499 678.797 625.055Z" fill="#F9AB50"/>
<path d="M678.8 625.055C672.705 633.499 670.432 642.602 669.055 652.712L688.432 652.735C691.794 652.744 695.303 652.587 698.652 652.837C701.282 650.161 703.659 647.272 705.524 644.004C711.079 634.27 711.722 622.592 708.865 611.954C708.02 609.899 707.195 607.875 706.098 605.937C702.585 607.193 699.089 608.442 695.702 610.015C691.056 612.578 687.07 615.78 683.342 619.547C681.86 621.42 680.205 623.109 678.8 625.055Z" fill="#ED7521"/>
<path d="M583.463 713.043C586.717 704.762 593.183 696.686 600.732 691.929C603.091 690.443 605.653 689.371 608.198 688.254L608.384 564.322L608.322 542.462C608.332 538.181 608.883 532.14 607.983 528.077C607.924 527.81 607.855 527.545 607.777 527.283C607.699 527.02 607.611 526.761 607.515 526.505C607.418 526.249 607.312 525.997 607.197 525.748C607.082 525.5 606.958 525.257 606.825 525.017C606.692 524.778 606.551 524.543 606.401 524.314C606.252 524.085 606.094 523.861 605.929 523.643C605.763 523.425 605.59 523.214 605.409 523.008C605.228 522.803 605.04 522.604 604.845 522.413C603.356 520.93 601.565 519.581 599.494 519.07C596.086 518.228 591.728 518.735 588.185 518.74L568.359 518.82C568.196 521.561 567.971 524.129 566.439 526.513C565.279 528.32 563.191 529.689 561.067 530.072C558.953 530.452 556.473 530.229 554.323 530.236L542.736 530.302L523.358 530.357C519.867 530.365 516.183 530.602 512.716 530.221C510.886 530.02 509.474 529.647 507.962 528.533C504.635 526.084 504.058 522.514 503.442 518.719L486.842 518.719C483.41 518.707 479.278 518.259 475.935 519.034C473.791 519.531 471.989 520.538 470.436 522.094C468.528 524.008 466.962 526.564 466.495 529.251C465.961 532.326 466.209 535.615 466.216 538.729L466.215 553.697L466.288 614.276C467.185 614.312 468.081 614.36 468.976 614.42C469.769 614.774 470.485 615.091 470.861 615.935C471.6 617.594 467.001 643.791 466.541 647.537C466.234 650.031 466.157 652.577 466.172 655.089C466.336 657.325 466.58 659.604 466.159 661.825L466.37 722.079L466.336 740.829C466.321 744.487 466.087 748.302 466.489 751.935C466.708 753.909 467.421 756.564 468.863 757.978C469.913 759.008 471.247 759.252 472.662 759.358C477.708 759.736 482.947 759.475 488.01 759.476L516.99 759.477L567.648 759.531C575.639 759.55 583.642 759.731 591.632 759.643C588.575 756.007 585.753 751.912 583.855 747.552C579.148 736.739 579.17 723.968 583.463 713.043ZM495.935 638.27C495.939 637.96 495.948 637.65 495.96 637.34C495.973 637.03 495.989 636.721 496.009 636.411C496.029 636.102 496.053 635.793 496.081 635.484C496.108 635.175 496.14 634.866 496.175 634.558C497.345 624.175 502.398 614.368 510.669 607.857C518.727 601.513 528.984 599.398 539.016 600.587L538.985 594.667C538.917 586.159 538.675 577.568 538.963 569.066C556.499 569.08 571.784 574.533 584.329 587.046C592.312 595.009 598.404 606.068 600.512 617.204C601.381 621.795 601.575 626.465 601.629 631.127C593.276 631.128 584.904 631.007 576.554 631.146L574.11 631.165C574.494 634.989 574.725 638.795 574.359 642.632C573.346 653.27 567.641 661.672 559.551 668.34C551.571 674.916 541.495 677.704 531.237 676.649C520.941 675.59 510.749 670.56 504.224 662.421C504.029 662.179 503.838 661.935 503.65 661.688C503.462 661.442 503.277 661.193 503.095 660.942C502.913 660.691 502.734 660.437 502.559 660.182C502.383 659.926 502.21 659.668 502.041 659.409C501.871 659.149 501.705 658.887 501.543 658.623C501.38 658.359 501.22 658.093 501.064 657.825C500.907 657.557 500.754 657.288 500.605 657.016C500.455 656.744 500.309 656.471 500.166 656.196C500.023 655.92 499.884 655.643 499.748 655.365C499.611 655.086 499.479 654.806 499.35 654.524C499.221 654.242 499.095 653.959 498.973 653.673C498.851 653.388 498.732 653.102 498.617 652.814C498.502 652.526 498.39 652.236 498.283 651.946C498.175 651.655 498.07 651.363 497.97 651.07C497.869 650.776 497.772 650.482 497.679 650.186C497.585 649.89 497.496 649.593 497.41 649.295C497.324 648.997 497.241 648.699 497.162 648.399C497.084 648.098 497.009 647.798 496.938 647.496C496.866 647.194 496.799 646.891 496.735 646.588C496.671 646.284 496.611 645.98 496.555 645.675C496.499 645.37 496.446 645.065 496.398 644.758C496.349 644.452 496.304 644.145 496.263 643.838C496.222 643.53 496.184 643.222 496.151 642.914C496.117 642.606 496.088 642.297 496.062 641.988C496.036 641.679 496.014 641.37 495.996 641.06C495.978 640.75 495.963 640.441 495.952 640.131C495.942 639.821 495.935 639.51 495.932 639.2C495.929 638.891 495.93 638.58 495.935 638.27ZM489.253 705.287C489.323 703.961 490.112 703.026 491.025 702.148C496.494 701.813 502.16 702.103 507.65 702.106C513.402 702.108 519.312 701.828 525.047 702.153C526.314 702.225 527.66 702.352 528.524 703.409C529.088 704.099 529.225 704.984 529.089 705.845C528.898 707.054 528.232 707.73 527.259 708.394C524.556 709.201 516.299 708.71 513.075 708.708C505.741 708.702 498.348 708.885 491.021 708.591C490.741 708.367 490.476 708.127 490.225 707.871C489.529 707.16 489.199 706.287 489.253 705.287ZM551.496 719.88C551.283 721.193 550.422 721.931 549.417 722.698C547.55 723.067 545.314 722.865 543.402 722.864L532.122 722.849C519.642 722.829 507.122 723.057 494.648 722.812C493.164 722.783 490.447 722.815 489.459 721.545C489.007 720.965 488.843 720.313 488.946 719.592C489.155 718.148 489.915 717.128 491.072 716.302C504.442 716.247 517.811 716.265 531.181 716.356C534.603 716.389 538.025 716.397 541.447 716.382C543.616 716.367 545.859 716.219 548.016 716.423C549.15 716.53 550.303 716.899 551.028 717.838C551.486 718.431 551.614 719.155 551.496 719.88ZM579.5 706.914C579.277 707.899 578.436 708.504 577.623 708.991C574.879 709.221 572.037 709.078 569.283 709.074L553.883 709.009C549.508 708.987 542.119 709.409 538.05 708.818C537.233 708.7 536.615 708.295 536.16 707.612C535.62 706.803 535.706 705.624 535.924 704.728C536.227 703.479 536.788 703.02 537.863 702.38C543.077 702.093 548.424 702.306 553.654 702.317C560.867 702.332 568.102 702.232 575.312 702.365C576.613 702.388 578.178 702.347 579.072 703.464C579.818 704.396 579.748 705.816 579.5 706.914Z" fill="#F9FBFD"/>
<path d="M491.024 708.59C498.351 708.885 505.744 708.701 513.078 708.707C516.302 708.71 524.559 709.2 527.262 708.393C528.235 707.73 528.901 707.054 529.092 705.845C529.228 704.984 529.091 704.098 528.527 703.409C527.663 702.352 526.317 702.225 525.05 702.153C519.315 701.828 513.405 702.107 507.653 702.105C502.163 702.103 496.497 701.813 491.028 702.147C490.115 703.025 489.326 703.961 489.256 705.287C489.202 706.287 489.532 707.16 490.228 707.871C490.479 708.127 490.744 708.366 491.024 708.59Z" fill="#B2D9F7"/>
<path d="M575.315 702.364C568.105 702.232 560.87 702.332 553.657 702.317C548.427 702.305 543.08 702.093 537.866 702.379C536.791 703.02 536.23 703.479 535.927 704.728C535.709 705.624 535.623 706.803 536.162 707.612C536.618 708.294 537.235 708.699 538.052 708.818C542.122 709.408 549.51 708.986 553.886 709.009L569.285 709.074C572.04 709.077 574.882 709.221 577.625 708.991C578.439 708.503 579.28 707.899 579.503 706.913C579.75 705.816 579.82 704.396 579.075 703.464C578.181 702.346 576.615 702.388 575.315 702.364Z" fill="#B2D9F7"/>
<path d="M548.017 716.423C545.861 716.219 543.617 716.367 541.449 716.382C538.026 716.397 534.604 716.389 531.182 716.356C517.813 716.264 504.443 716.247 491.074 716.302C489.916 717.128 489.156 718.148 488.948 719.592C488.844 720.313 489.008 720.965 489.46 721.545C490.448 722.815 493.165 722.783 494.65 722.812C507.123 723.057 519.643 722.829 532.123 722.849L543.403 722.863C545.315 722.865 547.552 723.067 549.419 722.698C550.423 721.931 551.285 721.193 551.498 719.88C551.615 719.154 551.488 718.431 551.03 717.838C550.305 716.899 549.152 716.53 548.017 716.423Z" fill="#B2D9F7"/>
<path d="M466.217 553.697L466.217 538.729C466.211 535.616 465.962 532.327 466.497 529.251C466.963 526.565 468.529 524.008 470.437 522.095C471.99 520.538 473.793 519.531 475.936 519.034C479.279 518.259 483.411 518.707 486.844 518.72L503.444 518.719C504.059 522.515 504.636 526.084 507.963 528.534C509.476 529.647 510.887 530.02 512.718 530.221C516.184 530.602 519.868 530.365 523.36 530.358L542.737 530.302L554.324 530.237C556.474 530.23 558.955 530.453 561.068 530.072C563.192 529.689 565.28 528.32 566.441 526.513C567.972 524.129 568.197 521.562 568.361 518.82L588.187 518.74C591.73 518.736 596.088 518.228 599.496 519.07C601.566 519.581 603.358 520.931 604.846 522.413C605.041 522.605 605.229 522.803 605.41 523.009C605.591 523.214 605.765 523.426 605.93 523.644C606.096 523.862 606.253 524.085 606.403 524.314C606.552 524.544 606.694 524.778 606.826 525.017C606.959 525.257 607.083 525.501 607.198 525.749C607.313 525.997 607.419 526.25 607.516 526.505C607.613 526.762 607.7 527.021 607.779 527.283C607.857 527.545 607.925 527.81 607.984 528.077C608.884 532.14 608.334 538.182 608.324 542.462L608.385 564.322L608.2 688.255C610.181 687.4 612.215 686.604 614.303 686.057C613.858 648.241 614.256 610.398 614.178 572.579C614.145 562.895 614.163 553.211 614.235 543.527C614.249 538.379 614.668 532.794 613.974 527.702C613.459 523.913 611.753 520.533 609.079 517.802C605.334 513.977 601.291 513.009 596.071 512.971L512.184 512.917L488.18 512.933C484.055 512.937 479.389 512.545 475.327 513.231C471.853 513.818 468.484 515.608 466 518.091C463.417 520.674 461.482 524.301 460.822 527.901C460.191 531.336 460.477 535.16 460.491 538.649L460.563 555.72L460.504 614.499C463.314 614.507 466.176 614.614 468.978 614.421C468.083 614.36 467.187 614.312 466.29 614.277L466.217 553.697ZM543.793 521.651C544.2 520.725 544.897 520.438 545.778 520.078C546.222 520.107 546.687 520.129 547.121 520.229C547.788 520.381 548.431 520.95 548.744 521.552C548.783 521.627 548.817 521.703 548.847 521.782C548.877 521.861 548.903 521.941 548.923 522.023C548.944 522.105 548.961 522.188 548.972 522.271C548.983 522.355 548.99 522.439 548.992 522.523C548.994 522.608 548.991 522.692 548.982 522.776C548.974 522.86 548.962 522.943 548.944 523.026C548.927 523.109 548.905 523.19 548.878 523.27C548.851 523.35 548.82 523.428 548.784 523.505C548.359 524.435 547.657 524.725 546.765 525.068C546.218 525.044 545.608 525.048 545.102 524.82C544.544 524.569 544.015 524.019 543.77 523.461C543.515 522.874 543.537 522.234 543.793 521.651ZM529.528 522.586C529.604 521.917 530.117 521.43 530.564 520.98C533.051 520.951 539.701 520.22 541.59 522.072C541.876 522.353 541.794 522.498 541.811 522.869C541.452 523.514 541.164 523.863 540.605 524.345C538.653 524.422 531.491 524.941 530.068 523.762C529.672 523.434 529.467 523.12 529.528 522.586Z" fill="#3455B4"/>
<path d="M545.102 524.821C545.609 525.049 546.219 525.044 546.766 525.068C547.658 524.725 548.36 524.435 548.785 523.505C548.82 523.428 548.852 523.35 548.879 523.27C548.905 523.19 548.928 523.109 548.945 523.026C548.963 522.943 548.975 522.86 548.983 522.776C548.991 522.692 548.994 522.608 548.992 522.524C548.991 522.439 548.984 522.355 548.973 522.271C548.961 522.188 548.945 522.105 548.924 522.023C548.903 521.941 548.878 521.861 548.848 521.782C548.818 521.703 548.783 521.627 548.744 521.552C548.431 520.95 547.788 520.382 547.122 520.229C546.687 520.129 546.223 520.107 545.778 520.078C544.898 520.438 544.201 520.725 543.794 521.651C543.537 522.234 543.515 522.874 543.771 523.461C544.015 524.02 544.544 524.569 545.102 524.821Z" fill="#F9FBFD"/>
<path d="M530.066 523.761C531.489 524.94 538.651 524.421 540.603 524.344C541.162 523.862 541.45 523.513 541.809 522.868C541.793 522.497 541.874 522.352 541.588 522.071C539.7 520.218 533.049 520.95 530.562 520.979C530.115 521.429 529.603 521.916 529.526 522.585C529.466 523.119 529.67 523.432 530.066 523.761Z" fill="#F9FBFD"/>
<path d="M566.101 604.78L565.088 603.777C559.576 609.819 554.327 616.05 549.047 622.294C546.433 625.384 543.72 628.394 541.172 631.539C541.955 631.477 542.676 631.297 543.436 631.104C545.281 628.065 550.65 622.72 553.173 619.841C557.529 614.871 561.628 609.64 566.101 604.78Z" fill="#142E8D"/>
<path d="M677.387 514.458H667.484V573H677.387V514.458Z" fill="#3455B4"/>
<path d="M720.598 513.337H710.695V573H720.598V513.337Z" fill="#3455B4"/>
<path d="M648.578 546.532H638.676V573H648.578V546.532Z" fill="#3455B4"/>
<path fill-rule="evenodd" clip-rule="evenodd" d="M653.078 536.492H662.975V573H653.078V536.492ZM681.887 517.82H691.784V572.999H681.887V517.82ZM696.292 523.359H706.189V572.999H696.292V523.359ZM725.102 501H734.999V572.999H725.102V501Z" fill="#66B0E8"/>
<path d="M668.916 539.082L638 567.7L639.594 569.411L669.681 541.561L692.667 564.593L727.955 529.413L731.458 532.906L735 520.738L722.796 524.271L726.298 527.762L692.67 561.286L669.746 538.315L668.916 539.082Z" fill="#F79646"/>
<defs>
<filter id="filter0_f_1_742" x="0" y="0" width="1154" height="1167" filterUnits="userSpaceOnUse" color-interpolation-filters="sRGB">
<feFlood flood-opacity="0" result="BackgroundImageFix"/>
<feBlend mode="normal" in="SourceGraphic" in2="BackgroundImageFix" result="shape"/>
<feGaussianBlur stdDeviation="200" result="effect1_foregroundBlur_1_742"/>
</filter>
<linearGradient id="paint0_linear_1_742" x1="388.217" y1="760.902" x2="384.394" y2="784.002" gradientUnits="userSpaceOnUse">
<stop stop-color="#06247A"/>
<stop offset="1" stop-color="#1638AE"/>
</linearGradient>
<linearGradient id="paint1_linear_1_742" x1="466.231" y1="823.894" x2="669.521" y2="671.088" gradientUnits="userSpaceOnUse">
<stop stop-color="#112B93"/>
<stop offset="1" stop-color="#436AC4"/>
</linearGradient>
</defs>
</svg>
