<svg width="98" height="98" viewBox="0 0 98 98" fill="none" xmlns="http://www.w3.org/2000/svg">
<g id="icons8-youtube-logo 1">
<path id="Vector" d="M88.2 69.2125C87.3833 73.5 83.9125 76.7667 79.625 77.3792C72.8875 78.4 61.6583 79.625 49 79.625C36.5459 79.625 25.3167 78.4 18.375 77.3792C14.0875 76.7667 10.6167 73.5 9.80002 69.2125C8.98335 64.5167 8.16669 57.575 8.16669 49C8.16669 40.425 8.98335 33.4833 9.80002 28.7875C10.6167 24.5 14.0875 21.2333 18.375 20.6208C25.1125 19.6 36.3417 18.375 49 18.375C61.6583 18.375 72.6833 19.6 79.625 20.6208C83.9125 21.2333 87.3833 24.5 88.2 28.7875C89.0167 33.4833 90.0375 40.425 90.0375 49C89.8333 57.575 89.0167 64.5167 88.2 69.2125Z" fill="#FF3D00"/>
<path id="Vector_2" d="M40.8333 63.2917V34.7084L65.3333 49L40.8333 63.2917Z" fill="white"/>
</g>
</svg>
