<svg width="14" height="14" viewBox="0 0 14 14" fill="none" xmlns="http://www.w3.org/2000/svg">
<g id="icons8-briefcase 1" clip-path="url(#clip0_1_1813)">
<path id="Vector" d="M6.99988 0.4375C5.5879 0.4375 4.37115 1.41357 4.04263 2.76995C3.59 2.81948 3.13741 2.8758 2.68486 2.94815C1.78361 3.09224 1.01771 3.80106 0.800649 4.78285V4.78385C0.316288 6.97912 0.316288 9.18674 0.800649 11.382C1.01762 12.364 1.78266 13.0736 2.68395 13.2177C5.55979 13.6774 8.43905 13.6774 11.3149 13.2177C12.2161 13.0736 12.982 12.3648 13.1991 11.383V11.382C13.6835 9.18674 13.6835 6.97912 13.1991 4.78385C13.0916 4.29716 12.8492 3.87757 12.5225 3.56038C12.4766 3.49839 12.418 3.44895 12.3513 3.41603C12.0502 3.17526 11.6967 3.00904 11.3158 2.94815C10.863 2.87577 10.4101 2.81949 9.95712 2.76995C9.6286 1.41357 8.41186 0.4375 6.99988 0.4375ZM6.99988 1.45689C7.87738 1.45689 8.60013 1.97034 8.92346 2.67538C8.28222 2.6298 7.64109 2.6037 6.99988 2.6037C6.35867 2.6037 5.71734 2.6298 5.07629 2.67538C5.39963 1.97034 6.12237 1.45689 6.99988 1.45689ZM6.99988 3.62309C7.82342 3.62309 8.64716 3.66657 9.47096 3.74455C9.50587 3.75258 9.5415 3.75625 9.57717 3.7555H9.57808C10.1118 3.80821 10.6456 3.87225 11.1794 3.95758C11.3378 3.98291 11.4862 4.04002 11.6225 4.11786C11.2414 5.55781 10.1392 6.73767 8.68816 7.26761C8.45588 6.62912 7.84152 6.11682 6.99988 6.11682C6.15656 6.11682 5.54187 6.63131 5.31068 7.2716C3.85926 6.7415 2.75971 5.55681 2.37907 4.11686C2.51512 4.03941 2.66344 3.98282 2.82128 3.95758C3.35678 3.87198 3.8919 3.80827 4.42717 3.7555C4.46161 3.75595 4.496 3.75228 4.52971 3.74455H4.53154C5.35428 3.66672 6.17713 3.62309 6.99988 3.62309ZM12.2964 5.06955C12.7372 7.0988 12.735 9.11462 12.2872 11.1441C12.164 11.7016 11.7182 12.122 11.1785 12.2083C8.39164 12.6538 5.6072 12.6538 2.82037 12.2083C2.28067 12.122 1.83589 11.7024 1.71254 11.1441C1.26483 9.11494 1.26279 7.09948 1.70339 5.07055C2.34072 6.6357 3.66535 7.83891 5.29603 8.33877C5.51375 9.00013 6.13666 9.53934 6.99988 9.53934C7.86478 9.53934 8.48811 8.99791 8.70464 8.33479C10.3337 7.83428 11.6595 6.63338 12.2964 5.06955ZM6.99988 7.13621C7.63068 7.13621 7.81591 7.44142 7.84402 7.74545C7.81119 7.83916 7.8045 7.94131 7.82479 8.03913C7.75554 8.29493 7.54119 8.51995 6.99988 8.51995C6.54448 8.51995 6.31918 8.36033 6.21708 8.15759C6.2517 8.07545 6.26561 7.98479 6.25741 7.89488C6.24921 7.80497 6.21917 7.71904 6.17038 7.6459C6.23083 7.37844 6.43842 7.13621 6.99988 7.13621Z" fill="#555555"/>
</g>
<defs>
<clipPath id="clip0_1_1813">
<rect width="14" height="14" fill="white"/>
</clipPath>
</defs>
</svg>
