<svg width="22" height="22" viewBox="0 0 22 22" fill="none" xmlns="http://www.w3.org/2000/svg">
<path d="M12.8333 4.89667C12.5988 4.89667 12.364 4.9878 12.1852 5.16701L12.1064 5.24579C11.748 5.60421 11.748 6.18451 12.1064 6.54201L15.6478 10.0834H3.66667C3.16067 10.0834 2.75 10.494 2.75 11C2.75 11.506 3.16067 11.9167 3.66667 11.9167H15.6478L12.1064 15.458C11.748 15.8164 11.748 16.3968 12.1064 16.7543L12.1852 16.833C12.5436 17.1914 13.1239 17.1914 13.4814 16.833L18.6663 11.6481C19.0248 11.2897 19.0248 10.7094 18.6663 10.3519L13.4814 5.16701C13.3022 4.9878 13.0679 4.89667 12.8333 4.89667Z" fill="#5978FF"/>
</svg>
